# xmcd CD database file
#
# Track frame offsets:
#	150
#	11052
#	23636
#	35819
#	45821
#	56921
#	68791
#	80723
#	90532
#	99981
#	109238
#	118102
#	128024
#	138918
#	150064
#	158913
#	166561
#	176428
#	187070
#	193750
#
# Disc length: 2700 seconds
#
# Revision: 1
# Processed by: cddbd v1.5.1PL2 Copyright (c) Steve Scherf et al.
# Submitted via: CDex 1.51
#
DISCID=fb0a8a14
DTITLE=Johnny Cash - The Great Country Collection - 6 of 8
DYEAR=2002
DGENRE=Country
TTITLE0=Cry! Cry! Cry!
TTITLE1=Folsom Prison Blues
TTITLE2=I Walk The Line
TTITLE3=Get Rhythm
TTITLE4=Don't Make Me Go
TTITLE5=Home Of The Blues
TTITLE6=Give My Love To Rose
TTITLE7=Ballad Of A Teenage Queen
TTITLE8=It's Just About Time
TTITLE9=Luther Played The Boogie
TTITLE10=Katy Too
TTITLE11=Goodbye Little Darlin'
TTITLE12=I Love You Because
TTITLE13=Mean-Eyed Cat
TTITLE14=Life Goes On
TTITLE15=Hey Good Lookin'
TTITLE16=I Could Never Be Ashamed Of You
TTITLE17=I Just Thought You'd Like To Know
TTITLE18=Leave That Junk Alone
TTITLE19=I Forgot To Remeber To Forget
EXTD=YEAR: 2002
EXTT0=
EXTT1=
EXTT2=
EXTT3=
EXTT4=
EXTT5=
EXTT6=
EXTT7=
EXTT8=
EXTT9=
EXTT10=
EXTT11=
EXTT12=
EXTT13=
EXTT14=
EXTT15=
EXTT16=
EXTT17=
EXTT18=
EXTT19=
PLAYORDER=
